# xmcd
#
# Track frame offsets:
#	150
#	19050
#	36450
#	52725
#	71400
#	86625
#	102300
#	114375
#	127650
#	144675
#	158550
#	177300
#	195825
#	210675
#	226500
#	241350
#	256650
#	274875
#	289275
#	307575
#	324750
#
# Disc length: 4519 seconds
#
# Revision: 1
# Processed by: cddbd v1.5.1PL2 Copyright (c) Steve Scherf et al.
# Submitted via: audiograbber 1.83.01
#
DISCID=0d11a515
DTITLE=Various Artist - Best Of Disco 4/2005
DYEAR=2005
DGENRE=Pop
TTITLE0=t.A.T.u. - All About Us (Dave Aude Vocal Edit)
TTITLE1=Paul Van Dyk feat. Wayne Jackson - The Other Side (Radio Mix)
TTITLE2=Arash - Temptation (Album Version)
TTITLE3=Akcent - Kylie (Original Radio Edit)
TTITLE4=Shana Vanguarde - Dancing Queen (Radio Edit)
TTITLE5=Daniel Hope feat. Paul King - Love and Pride 2005
TTITLE6=D.O.N.S. feat. Technotronic - Pump Up The Jam '05 (New Radio Edit)
TTITLE7=Special D. - Here I Am (Single Edit)
TTITLE8=Freddy Fader - Go Scratch (Single Mix)
TTITLE9=Nick Beat - Technodisco (Technovideomix)
TTITLE10=Karma - Every Time You Leave (Age Pee Remix-Short)
TTITLE11=Belushi - What's Up (Radio Edit)
TTITLE12=Cascada - How Do You Do (Radio Mix)
TTITLE13=Murphy Brown feat. Loraine - Just Can't Get Enough (Original Radio)
TTITLE14=Royal Gigolos - Somebody's Watching Me (Single Version)
TTITLE15=Faith Evans - Mesmerized (Freemasons Full Vocal Mix-Edit)
TTITLE16=General Moders - Cross The Sky (Radio Edit)
TTITLE17=A-Man feat. T.Mike - Boom (Radio Edit)
TTITLE18=Basement Jaxx - Oh My Gosh
TTITLE19=Ilona - C'est Les Vacances (Fast and Furious Remix-Edit)
TTITLE20=Lou Bega - You Wanna Be Americano (Radio)
EXTD=
EXTT0=
EXTT1=
EXTT2=
EXTT3=
EXTT4=
EXTT5=
EXTT6=
EXTT7=
EXTT8=
EXTT9=
EXTT10=
EXTT11=
EXTT12=
EXTT13=
EXTT14=
EXTT15=
EXTT16=
EXTT17=
EXTT18=
EXTT19=
EXTT20=
PLAYORDER=
